<?xml version="1.0" standalone="no"?>
<!DOCTYPE svg PUBLIC "-//W3C//DTD SVG 20010904//EN"
 "http://www.w3.org/TR/2001/REC-SVG-20010904/DTD/svg10.dtd">
<svg version="1.0" xmlns="http://www.w3.org/2000/svg"
 width="700.000000pt" height="700.000000pt" viewBox="0 0 700.000000 700.000000"
 preserveAspectRatio="xMidYMid meet">
<metadata>
Created by potrace 1.14, written by Peter Selinger 2001-2017
</metadata>
<g transform="translate(0.000000,700.000000) scale(0.100000,-0.100000)"
fill="#000000" stroke="none">
<path d="M1236 6993 c-1 -1 -240 -3 -533 -4 l-531 -2 -42 -64 c-47 -71 -89
-169 -92 -211 -1 -15 -5 -32 -10 -38 -4 -6 -6 -53 -4 -105 3 -110 31 -189 96
-275 40 -53 73 -71 171 -89 13 -3 35 -7 49 -10 14 -2 48 -7 75 -10 28 -3 66
-7 85 -10 34 -5 76 -8 249 -20 615 -43 2060 -37 2556 10 97 10 162 17 185 20
14 2 45 7 70 10 117 17 179 80 210 215 32 137 46 145 248 136 86 -4 175 -8
197 -11 47 -4 186 -15 270 -20 33 -3 83 -7 110 -9 77 -8 238 -19 257 -18 29 1
29 -14 2 -34 -222 -163 -942 -743 -1190 -959 -44 -38 -91 -79 -105 -90 -42
-36 -229 -204 -349 -314 -116 -105 -660 -648 -735 -731 -22 -25 -81 -90 -130
-145 -426 -471 -811 -996 -1085 -1475 -46 -80 -95 -165 -109 -190 -14 -25 -26
-47 -26 -50 0 -3 -20 -44 -44 -92 -36 -71 -44 -97 -44 -142 0 -87 52 -149 175
-211 l71 -35 79 42 c106 57 186 137 239 242 125 244 414 678 623 937 12 14 35
43 51 64 138 173 311 377 451 530 40 44 82 91 94 105 30 35 249 268 339 359
65 67 69 69 30 21 -24 -30 -46 -57 -49 -60 -11 -10 -217 -267 -305 -380 -49
-63 -92 -117 -95 -120 -3 -3 -60 -77 -125 -165 -66 -88 -123 -162 -126 -165
-4 -4 -274 -376 -384 -530 -111 -155 -338 -492 -427 -635 -64 -101 -143 -194
-202 -236 -43 -32 -35 -35 40 -15 194 51 339 195 534 526 211 358 665 985 979
1350 31 35 67 78 81 94 219 261 712 777 1011 1058 142 133 305 285 364 338 39
35 93 84 120 110 333 308 752 661 924 777 83 56 121 86 184 146 l30 29 141 -7
c150 -7 197 -10 316 -20 484 -43 587 -28 722 108 83 84 89 130 21 162 -52 25
-119 16 -183 -25 -29 -18 -57 -38 -63 -45 -20 -19 -100 -70 -147 -93 -154 -75
-324 -64 -591 39 -78 30 -80 32 -66 52 101 154 108 207 39 280 -57 60 -206
114 -289 103 -70 -8 -203 -77 -297 -153 -15 -13 -36 -22 -45 -19 -9 2 -53 7
-98 11 -46 3 -91 8 -101 10 -10 2 -56 6 -103 10 -46 3 -100 8 -119 10 -19 2
-69 7 -110 10 -41 3 -91 8 -110 10 -19 2 -71 7 -115 10 -44 3 -109 8 -145 11
-36 2 -87 6 -115 9 -27 2 -86 7 -130 10 -185 13 -232 16 -275 20 -25 2 -97 7
-160 11 -63 3 -133 8 -155 9 -22 2 -101 7 -175 11 -74 3 -155 9 -180 11 -41 5
-1969 11 -1974 6z m-1163 -386 c69 -155 208 -260 377 -285 56 -9 471 -7 1040
3 794 15 1929 9 1948 -10 3 -3 -21 -5 -54 -6 -61 -1 -79 -2 -434 -14 -214 -7
-267 -9 -495 -19 -66 -3 -183 -8 -260 -11 -77 -3 -183 -8 -235 -10 -52 -2
-167 -7 -255 -10 -88 -4 -198 -8 -245 -10 -486 -20 -878 -23 -970 -8 -118 19
-125 21 -190 55 -85 43 -161 122 -204 211 -37 75 -70 177 -58 177 4 0 20 -29
35 -63z m5474 31 c47 -44 16 -118 -50 -118 -69 0 -100 68 -52 115 30 31 71 32
102 3z m-4062 -4200 c35 -16 54 -55 44 -91 -10 -37 -36 -56 -77 -57 -38 0 -82
40 -82 75 0 29 35 73 63 78 12 2 23 5 24 6 1 0 14 -4 28 -11z"/>
<path d="M4 1904 c-10 -38 4 -131 24 -162 60 -93 213 -171 442 -226 58 -13
100 -75 115 -166 21 -132 148 -271 294 -320 57 -20 71 -29 71 -45 0 -17 -10
-23 -55 -32 -171 -36 -330 -175 -382 -333 -24 -74 -24 -198 0 -269 99 -295
481 -438 776 -292 232 115 307 314 215 568 -71 195 -201 311 -381 339 -43 7
-47 9 -39 22 3 5 30 13 61 17 69 8 158 52 213 106 91 89 153 249 148 382 -6
161 -121 290 -311 348 -61 19 -220 16 -285 -5 -82 -27 -172 -79 -247 -142
-119 -101 -175 -107 -321 -33 -142 71 -194 114 -269 222 -36 53 -59 60 -69 21z
m1228 -161 c194 -91 244 -268 137 -484 -54 -109 -157 -176 -286 -185 -61 -4
-170 13 -179 27 -3 5 -12 9 -20 9 -21 0 -102 56 -137 94 -135 148 -106 383 60
497 84 58 154 78 263 75 83 -2 104 -6 162 -33z m-82 -873 c137 -38 224 -131
276 -295 47 -148 24 -265 -71 -360 -139 -139 -365 -168 -550 -71 -194 102
-274 325 -180 506 90 176 327 275 525 220z"/>
<path d="M1564 1312 c-4 -15 -16 -44 -26 -65 -11 -22 -17 -42 -14 -45 3 -3 6
-3 6 0 0 3 17 2 38 -2 45 -10 226 -37 302 -45 30 -3 66 -7 80 -10 14 -2 50 -7
80 -10 60 -6 119 -13 159 -19 14 -3 62 -10 106 -16 44 -7 87 -14 95 -15 138
-29 189 -42 292 -75 68 -22 152 -53 188 -71 156 -75 284 -186 308 -267 l13
-42 142 5 c78 2 221 7 317 10 316 10 473 15 600 20 69 3 188 7 265 10 77 3
183 7 235 10 52 2 158 7 235 10 77 3 174 8 215 10 41 2 125 7 185 10 61 3 139
7 175 10 36 2 108 7 160 10 52 3 120 8 150 10 30 2 96 7 145 10 50 3 110 8
135 10 25 2 77 7 115 10 146 12 182 15 235 20 30 3 78 7 105 10 28 2 77 7 110
11 33 4 64 7 70 5 5 -1 7 1 2 5 -4 4 -24 9 -45 9 -89 4 -270 18 -402 30 -36 3
-92 8 -125 10 -59 4 -250 21 -330 29 -22 2 -76 7 -120 11 -44 4 -98 8 -120 10
-59 6 -443 44 -492 50 -23 3 -68 7 -100 10 -32 3 -74 8 -93 10 -19 2 -66 7
-105 10 -38 4 -77 9 -87 10 -10 2 -55 7 -101 11 -45 3 -84 8 -88 10 -3 1 -39
6 -80 9 -40 4 -84 8 -97 10 -13 2 -53 7 -90 10 -37 4 -78 8 -92 11 -14 2 -47
6 -75 9 -61 7 -215 24 -270 30 -52 6 -154 13 -290 20 -204 10 -310 16 -375 20
-36 3 -108 7 -160 10 -52 3 -115 8 -140 10 -56 5 -144 13 -235 20 -138 12
-180 16 -210 20 -16 2 -63 7 -104 10 -41 4 -82 8 -91 10 -9 2 -41 6 -71 9 -50
6 -170 22 -229 31 -14 2 -45 7 -70 10 -59 8 -290 44 -313 49 -12 3 -19 -4 -23
-22z m2586 -335 c0 -2 -10 -23 -21 -47 -42 -87 -57 -128 -51 -136 4 -5 -3 0
-15 10 -49 41 -38 131 20 160 28 14 67 21 67 13z m78 -65 c17 -50 -4 -104 -47
-121 -47 -18 -73 -23 -69 -15 2 5 20 44 41 87 20 43 37 83 37 89 0 18 28 -11
38 -40z"/>
<path d="M4260 1106 c0 -2 9 -6 20 -9 11 -3 18 -1 14 4 -5 9 -34 13 -34 5z"/>
<path d="M4310 1099 c0 -5 17 -10 38 -10 20 -1 46 -3 57 -4 11 -1 54 -5 95 -9
41 -3 89 -8 105 -10 17 -2 66 -7 110 -11 44 -4 91 -8 105 -10 14 -2 54 -6 90
-10 36 -3 83 -8 105 -10 22 -2 69 -7 105 -10 36 -3 81 -8 100 -10 19 -2 64 -7
100 -10 68 -6 120 -12 180 -20 19 -3 65 -7 101 -10 37 -3 82 -7 100 -9 19 -3
66 -8 104 -11 39 -4 84 -8 100 -10 17 -2 61 -7 98 -10 37 -4 76 -8 85 -10 9
-1 57 -6 106 -10 50 -3 92 -8 95 -10 3 -1 40 -6 81 -10 41 -3 91 -8 110 -10
19 -2 67 -6 105 -10 39 -3 81 -8 95 -10 112 -17 169 -16 226 4 66 24 102 50
69 52 -11 0 -27 2 -35 4 -22 4 -88 14 -140 20 -25 3 -56 7 -70 10 -14 2 -88
12 -165 20 -77 9 -156 18 -175 20 -19 3 -62 7 -95 10 -33 2 -82 7 -110 10 -47
4 -87 7 -255 20 -36 3 -92 7 -125 10 -139 11 -473 30 -721 40 -71 3 -176 7
-234 10 -58 2 -185 7 -282 10 -98 4 -196 8 -218 9 -22 2 -40 -1 -40 -5z"/>
<path d="M2788 825 c-2 -2 -32 -6 -68 -10 -36 -3 -119 -13 -185 -21 -66 -8
-136 -17 -155 -20 -37 -4 -181 -22 -240 -30 -19 -2 -48 -6 -65 -9 -28 -4 -301
-40 -390 -50 -22 -3 -53 -6 -68 -7 -27 -2 -28 -4 -21 -43 5 -22 7 -53 6 -68
-1 -15 2 -26 6 -23 4 2 58 7 120 10 62 4 132 9 155 11 23 2 89 6 147 10 58 3
130 8 160 10 127 10 212 15 325 21 66 3 143 7 170 9 28 2 142 7 255 11 113 3
207 8 209 10 7 6 -49 84 -86 120 -61 59 -103 75 -193 73 -44 -1 -81 -3 -82 -4z"/>
</g>
</svg>
