<?xml version="1.0" encoding="UTF-8" standalone="no"?>
<!-- Generator: Adobe Illustrator 18.1.1, SVG Export Plug-In . SVG Version: 6.00 Build 0)  -->

<svg
   version="1.1"
   id="Capa_1"
   x="0px"
   y="0px"
   viewBox="0 0 30 19.46252"
   xml:space="preserve"
   sodipodi:docname="arrow-down.svg"
   width="30"
   height="19.462521"
   inkscape:version="1.1.1 (3bf5ae0d25, 2021-09-20)"
   xmlns:inkscape="http://www.inkscape.org/namespaces/inkscape"
   xmlns:sodipodi="http://sodipodi.sourceforge.net/DTD/sodipodi-0.dtd"
   xmlns="http://www.w3.org/2000/svg"
   xmlns:svg="http://www.w3.org/2000/svg"><defs
   id="defs41" /><sodipodi:namedview
   id="namedview39"
   pagecolor="#505050"
   bordercolor="#eeeeee"
   borderopacity="1"
   inkscape:pageshadow="0"
   inkscape:pageopacity="0"
   inkscape:pagecheckerboard="0"
   showgrid="false"
   fit-margin-top="0"
   fit-margin-left="0"
   fit-margin-right="0"
   fit-margin-bottom="0"
   inkscape:zoom="15.888932"
   inkscape:cx="11.517452"
   inkscape:cy="12.807658"
   inkscape:window-width="1920"
   inkscape:window-height="1009"
   inkscape:window-x="1272"
   inkscape:window-y="-8"
   inkscape:window-maximized="1"
   inkscape:current-layer="Capa_1" />
<g
   id="g6"
   transform="matrix(1.1569683,0,0,1.1569683,5.4614008e-4,-5.2688336)"
   style="fill:#959da5;fill-opacity:1">
	<g
   id="c118_triangle"
   style="fill:#959da5;fill-opacity:1">
		<path
   d="m 25.397,4.554 h -2.042 l -9.974,12.644 c -0.101,0.124 -0.256,0.197 -0.416,0.197 -0.164,0 -0.315,-0.073 -0.419,-0.197 L 2.575,4.554 H 0.532 c -0.206,0 -0.392,0.115 -0.479,0.299 -0.09,0.184 -0.064,0.403 0.06,0.561 l 12.435,15.762 c 0.104,0.125 0.255,0.2 0.419,0.2 0.16,0 0.315,-0.075 0.416,-0.2 L 25.816,5.413 C 25.944,5.256 25.964,5.036 25.874,4.852 25.789,4.669 25.601,4.554 25.397,4.554 Z"
   id="path2"
   style="fill:#959da5;fill-opacity:1" />
	</g>
	<g
   id="Capa_1_184_"
   style="fill:#959da5;fill-opacity:1">
	</g>
</g>
<g
   id="g8"
   transform="translate(4.7204411e-4,-4.5539999)">
</g>
<g
   id="g10"
   transform="translate(4.7204411e-4,-4.5539999)">
</g>
<g
   id="g12"
   transform="translate(4.7204411e-4,-4.5539999)">
</g>
<g
   id="g14"
   transform="translate(4.7204411e-4,-4.5539999)">
</g>
<g
   id="g16"
   transform="translate(4.7204411e-4,-4.5539999)">
</g>
<g
   id="g18"
   transform="translate(4.7204411e-4,-4.5539999)">
</g>
<g
   id="g20"
   transform="translate(4.7204411e-4,-4.5539999)">
</g>
<g
   id="g22"
   transform="translate(4.7204411e-4,-4.5539999)">
</g>
<g
   id="g24"
   transform="translate(4.7204411e-4,-4.5539999)">
</g>
<g
   id="g26"
   transform="translate(4.7204411e-4,-4.5539999)">
</g>
<g
   id="g28"
   transform="translate(4.7204411e-4,-4.5539999)">
</g>
<g
   id="g30"
   transform="translate(4.7204411e-4,-4.5539999)">
</g>
<g
   id="g32"
   transform="translate(4.7204411e-4,-4.5539999)">
</g>
<g
   id="g34"
   transform="translate(4.7204411e-4,-4.5539999)">
</g>
<g
   id="g36"
   transform="translate(4.7204411e-4,-4.5539999)">
</g>
</svg>
