<?xml version="1.0" encoding="UTF-8" standalone="no"?>
<svg
   width="28"
   height="28"
   viewBox="0 0 28 28"
   id="icon"
   version="1.1"
   sodipodi:docname="avatar-outline.svg"
   inkscape:version="1.1.1 (3bf5ae0d25, 2021-09-20)"
   xmlns:inkscape="http://www.inkscape.org/namespaces/inkscape"
   xmlns:sodipodi="http://sodipodi.sourceforge.net/DTD/sodipodi-0.dtd"
   xmlns="http://www.w3.org/2000/svg"
   xmlns:svg="http://www.w3.org/2000/svg">
  <sodipodi:namedview
     id="namedview12"
     pagecolor="#505050"
     bordercolor="#eeeeee"
     borderopacity="1"
     inkscape:pageshadow="0"
     inkscape:pageopacity="0"
     inkscape:pagecheckerboard="0"
     showgrid="false"
     fit-margin-top="0"
     fit-margin-left="0"
     fit-margin-right="0"
     fit-margin-bottom="0"
     inkscape:zoom="18.208"
     inkscape:cx="9.1717928"
     inkscape:cy="14.032294"
     inkscape:window-width="1920"
     inkscape:window-height="1009"
     inkscape:window-x="1272"
     inkscape:window-y="-8"
     inkscape:window-maximized="1"
     inkscape:current-layer="icon" />
  <defs
     id="defs4">
    <style
       id="style2">
      .cls-1 {
        fill: none;
      }
    </style>
  </defs>
  <path
     d="m 14,6 a 5,5 0 1 0 5,5 5,5 0 0 0 -5,-5 z"
     id="path6"
     style="fill:#959da5;fill-opacity:1" />
  <g
     id="g920"
     transform="translate(-2,-2)">
    <path
       d="M 16,2 A 14,14 0 1 0 30,16 14.0158,14.0158 0 0 0 16,2 Z m 7.9925,22.9258 A 5.0016,5.0016 0 0 0 19,20 h -6 a 5.0016,5.0016 0 0 0 -4.9925,4.9258 12,12 0 1 1 15.985,0 z"
       id="path8"
       style="fill:#959da5;fill-opacity:1;stroke:none" />
  </g>
  <rect
     id="_Transparent_Rectangle_"
     data-name="&lt;Transparent Rectangle&gt;"
     class="cls-1"
     width="32"
     height="32"
     x="-2"
     y="-2" />
</svg>
