<svg id="visual" viewBox="0 0 1920 780" width="1920" height="780" xmlns="http://www.w3.org/2000/svg" xmlns:xlink="http://www.w3.org/1999/xlink" version="1.1"><rect x="0" y="0" width="1920" height="780" fill="#272A36"></rect><defs><linearGradient id="grad1_0" x1="59.4%" y1="100%" x2="100%" y2="0%"><stop offset="0.7692307692307665%" stop-color="#0066ff" stop-opacity="1"></stop><stop offset="99.23076923076923%" stop-color="#0066ff" stop-opacity="1"></stop></linearGradient></defs><defs><linearGradient id="grad1_1" x1="59.4%" y1="100%" x2="100%" y2="0%"><stop offset="0.7692307692307665%" stop-color="#0066ff" stop-opacity="1"></stop><stop offset="99.23076923076923%" stop-color="#1558ca" stop-opacity="1"></stop></linearGradient></defs><defs><linearGradient id="grad1_2" x1="59.4%" y1="100%" x2="100%" y2="0%"><stop offset="0.7692307692307665%" stop-color="#244996" stop-opacity="1"></stop><stop offset="99.23076923076923%" stop-color="#1558ca" stop-opacity="1"></stop></linearGradient></defs><defs><linearGradient id="grad1_3" x1="59.4%" y1="100%" x2="100%" y2="0%"><stop offset="0.7692307692307665%" stop-color="#244996" stop-opacity="1"></stop><stop offset="99.23076923076923%" stop-color="#293965" stop-opacity="1"></stop></linearGradient></defs><defs><linearGradient id="grad1_4" x1="59.4%" y1="100%" x2="100%" y2="0%"><stop offset="0.7692307692307665%" stop-color="#272a36" stop-opacity="1"></stop><stop offset="99.23076923076923%" stop-color="#293965" stop-opacity="1"></stop></linearGradient></defs><defs><linearGradient id="grad2_0" x1="0%" y1="100%" x2="40.6%" y2="0%"><stop offset="0.7692307692307665%" stop-color="#0066ff" stop-opacity="1"></stop><stop offset="99.23076923076923%" stop-color="#0066ff" stop-opacity="1"></stop></linearGradient></defs><defs><linearGradient id="grad2_1" x1="0%" y1="100%" x2="40.6%" y2="0%"><stop offset="0.7692307692307665%" stop-color="#1558ca" stop-opacity="1"></stop><stop offset="99.23076923076923%" stop-color="#0066ff" stop-opacity="1"></stop></linearGradient></defs><defs><linearGradient id="grad2_2" x1="0%" y1="100%" x2="40.6%" y2="0%"><stop offset="0.7692307692307665%" stop-color="#1558ca" stop-opacity="1"></stop><stop offset="99.23076923076923%" stop-color="#244996" stop-opacity="1"></stop></linearGradient></defs><defs><linearGradient id="grad2_3" x1="0%" y1="100%" x2="40.6%" y2="0%"><stop offset="0.7692307692307665%" stop-color="#293965" stop-opacity="1"></stop><stop offset="99.23076923076923%" stop-color="#244996" stop-opacity="1"></stop></linearGradient></defs><defs><linearGradient id="grad2_4" x1="0%" y1="100%" x2="40.6%" y2="0%"><stop offset="0.7692307692307665%" stop-color="#293965" stop-opacity="1"></stop><stop offset="99.23076923076923%" stop-color="#272a36" stop-opacity="1"></stop></linearGradient></defs><g transform="translate(1920, 780)"><path d="M-468 0C-442.5 -31 -416.9 -62.1 -405.6 -92.6C-394.2 -123.1 -397 -153.1 -397.3 -191.3C-397.7 -229.6 -395.5 -276.2 -365.1 -291.2C-334.7 -306.1 -276.1 -289.5 -248.1 -311.2C-220.2 -332.9 -223 -392.9 -203.1 -421.7C-183.1 -450.4 -140.4 -447.9 -102.8 -450.4C-65.2 -452.9 -32.6 -460.5 0 -468L0 0Z" fill="#29324d"></path><path d="M-374.4 0C-354 -24.8 -333.5 -49.6 -324.5 -74.1C-315.4 -98.5 -317.6 -122.4 -317.9 -153.1C-318.1 -183.7 -316.4 -221 -292.1 -232.9C-267.8 -244.9 -220.9 -231.6 -198.5 -248.9C-176.2 -266.3 -178.4 -314.3 -162.4 -337.3C-146.5 -360.3 -112.3 -358.3 -82.2 -360.3C-52.1 -362.3 -26.1 -368.4 0 -374.4L0 0Z" fill="#28417d"></path><path d="M-280.8 0C-265.5 -18.6 -250.2 -37.2 -243.3 -55.5C-236.5 -73.8 -238.2 -91.8 -238.4 -114.8C-238.6 -137.8 -237.3 -165.7 -219.1 -174.7C-200.8 -183.7 -165.6 -173.7 -148.9 -186.7C-132.1 -199.7 -133.8 -235.7 -121.8 -253C-109.9 -270.2 -84.3 -268.7 -61.7 -270.3C-39.1 -271.8 -19.6 -276.3 0 -280.8L0 0Z" fill="#1e51b0"></path><path d="M-187.2 0C-177 -12.4 -166.8 -24.8 -162.2 -37C-157.7 -49.2 -158.8 -61.2 -158.9 -76.5C-159.1 -91.9 -158.2 -110.5 -146 -116.5C-133.9 -122.5 -110.4 -115.8 -99.3 -124.5C-88.1 -133.1 -89.2 -157.2 -81.2 -168.7C-73.2 -180.2 -56.2 -179.2 -41.1 -180.2C-26.1 -181.2 -13 -184.2 0 -187.2L0 0Z" fill="#0a5fe4"></path><path d="M-93.6 0C-88.5 -6.2 -83.4 -12.4 -81.1 -18.5C-78.8 -24.6 -79.4 -30.6 -79.5 -38.3C-79.5 -45.9 -79.1 -55.2 -73 -58.2C-66.9 -61.2 -55.2 -57.9 -49.6 -62.2C-44 -66.6 -44.6 -78.6 -40.6 -84.3C-36.6 -90.1 -28.1 -89.6 -20.6 -90.1C-13 -90.6 -6.5 -92.1 0 -93.6L0 0Z" fill="#0066ff"></path></g><g transform="translate(0, 0)"><path d="M468 0C434.3 28.6 400.5 57.1 392.9 89.7C385.3 122.2 403.7 158.7 405.4 195.2C407.1 231.8 392 268.3 365.9 291.8C339.8 315.3 302.6 325.8 271.8 340.9C241.1 355.9 216.7 375.6 189.6 393.7C162.5 411.9 132.6 428.5 100.6 440.7C68.5 452.8 34.3 460.4 0 468L0 0Z" fill="#29324d"></path><path d="M374.4 0C347.4 22.9 320.4 45.7 314.3 71.7C308.2 97.8 323 127 324.3 156.2C325.7 185.4 313.6 214.6 292.7 233.4C271.8 252.2 242.1 260.6 217.5 272.7C192.9 284.8 173.4 300.5 151.7 315C130 329.5 106.1 342.8 80.5 352.5C54.8 362.2 27.4 368.3 0 374.4L0 0Z" fill="#28417d"></path><path d="M280.8 0C260.6 17.1 240.3 34.3 235.7 53.8C231.2 73.3 242.2 95.2 243.3 117.1C244.3 139.1 235.2 161 219.5 175.1C203.9 189.2 181.6 195.5 163.1 204.5C144.6 213.6 130 225.3 113.8 236.2C97.5 247.1 79.6 257.1 60.3 264.4C41.1 271.7 20.6 276.2 0 280.8L0 0Z" fill="#1e51b0"></path><path d="M187.2 0C173.7 11.4 160.2 22.9 157.2 35.9C154.1 48.9 161.5 63.5 162.2 78.1C162.9 92.7 156.8 107.3 146.4 116.7C135.9 126.1 121 130.3 108.7 136.4C96.4 142.4 86.7 150.2 75.8 157.5C65 164.7 53.1 171.4 40.2 176.3C27.4 181.1 13.7 184.2 0 187.2L0 0Z" fill="#0a5fe4"></path><path d="M93.6 0C86.9 5.7 80.1 11.4 78.6 17.9C77.1 24.4 80.7 31.7 81.1 39C81.4 46.4 78.4 53.7 73.2 58.4C68 63.1 60.5 65.2 54.4 68.2C48.2 71.2 43.3 75.1 37.9 78.7C32.5 82.4 26.5 85.7 20.1 88.1C13.7 90.6 6.9 92.1 0 93.6L0 0Z" fill="#0066ff"></path></g></svg>