<svg id="visual" viewBox="0 0 1920 780" width="1920" height="780" xmlns="http://www.w3.org/2000/svg" xmlns:xlink="http://www.w3.org/1999/xlink" version="1.1"><rect x="0" y="0" width="1920" height="780" fill="#272A36"></rect><defs><linearGradient id="grad1_0" x1="59.4%" y1="0%" x2="100%" y2="100%"><stop offset="0.7692307692307665%" stop-color="#0066ff" stop-opacity="1"></stop><stop offset="99.23076923076923%" stop-color="#0066ff" stop-opacity="1"></stop></linearGradient></defs><defs><linearGradient id="grad1_1" x1="59.4%" y1="0%" x2="100%" y2="100%"><stop offset="0.7692307692307665%" stop-color="#0066ff" stop-opacity="1"></stop><stop offset="99.23076923076923%" stop-color="#1558ca" stop-opacity="1"></stop></linearGradient></defs><defs><linearGradient id="grad1_2" x1="59.4%" y1="0%" x2="100%" y2="100%"><stop offset="0.7692307692307665%" stop-color="#244996" stop-opacity="1"></stop><stop offset="99.23076923076923%" stop-color="#1558ca" stop-opacity="1"></stop></linearGradient></defs><defs><linearGradient id="grad1_3" x1="59.4%" y1="0%" x2="100%" y2="100%"><stop offset="0.7692307692307665%" stop-color="#244996" stop-opacity="1"></stop><stop offset="99.23076923076923%" stop-color="#293965" stop-opacity="1"></stop></linearGradient></defs><defs><linearGradient id="grad1_4" x1="59.4%" y1="0%" x2="100%" y2="100%"><stop offset="0.7692307692307665%" stop-color="#272a36" stop-opacity="1"></stop><stop offset="99.23076923076923%" stop-color="#293965" stop-opacity="1"></stop></linearGradient></defs><defs><linearGradient id="grad2_0" x1="0%" y1="0%" x2="40.6%" y2="100%"><stop offset="0.7692307692307665%" stop-color="#0066ff" stop-opacity="1"></stop><stop offset="99.23076923076923%" stop-color="#0066ff" stop-opacity="1"></stop></linearGradient></defs><defs><linearGradient id="grad2_1" x1="0%" y1="0%" x2="40.6%" y2="100%"><stop offset="0.7692307692307665%" stop-color="#1558ca" stop-opacity="1"></stop><stop offset="99.23076923076923%" stop-color="#0066ff" stop-opacity="1"></stop></linearGradient></defs><defs><linearGradient id="grad2_2" x1="0%" y1="0%" x2="40.6%" y2="100%"><stop offset="0.7692307692307665%" stop-color="#1558ca" stop-opacity="1"></stop><stop offset="99.23076923076923%" stop-color="#244996" stop-opacity="1"></stop></linearGradient></defs><defs><linearGradient id="grad2_3" x1="0%" y1="0%" x2="40.6%" y2="100%"><stop offset="0.7692307692307665%" stop-color="#293965" stop-opacity="1"></stop><stop offset="99.23076923076923%" stop-color="#244996" stop-opacity="1"></stop></linearGradient></defs><defs><linearGradient id="grad2_4" x1="0%" y1="0%" x2="40.6%" y2="100%"><stop offset="0.7692307692307665%" stop-color="#293965" stop-opacity="1"></stop><stop offset="99.23076923076923%" stop-color="#272a36" stop-opacity="1"></stop></linearGradient></defs><g transform="translate(1920, 0)"><path d="M0 468C-31 442.5 -62.1 416.9 -92.6 405.6C-123.1 394.2 -153.1 397 -191.3 397.3C-229.6 397.7 -276.2 395.5 -291.2 365.1C-306.1 334.7 -289.5 276.1 -311.2 248.1C-332.9 220.2 -392.9 223 -421.7 203.1C-450.4 183.1 -447.9 140.4 -450.4 102.8C-452.9 65.2 -460.5 32.6 -468 0L0 0Z" fill="#29324d"></path><path d="M0 374.4C-24.8 354 -49.6 333.5 -74.1 324.5C-98.5 315.4 -122.4 317.6 -153.1 317.9C-183.7 318.1 -221 316.4 -232.9 292.1C-244.9 267.8 -231.6 220.9 -248.9 198.5C-266.3 176.2 -314.3 178.4 -337.3 162.4C-360.3 146.5 -358.3 112.3 -360.3 82.2C-362.3 52.1 -368.4 26.1 -374.4 0L0 0Z" fill="#28417d"></path><path d="M0 280.8C-18.6 265.5 -37.2 250.2 -55.5 243.3C-73.8 236.5 -91.8 238.2 -114.8 238.4C-137.8 238.6 -165.7 237.3 -174.7 219.1C-183.7 200.8 -173.7 165.6 -186.7 148.9C-199.7 132.1 -235.7 133.8 -253 121.8C-270.2 109.9 -268.7 84.3 -270.3 61.7C-271.8 39.1 -276.3 19.6 -280.8 0L0 0Z" fill="#1e51b0"></path><path d="M0 187.2C-12.4 177 -24.8 166.8 -37 162.2C-49.2 157.7 -61.2 158.8 -76.5 158.9C-91.9 159.1 -110.5 158.2 -116.5 146C-122.5 133.9 -115.8 110.4 -124.5 99.3C-133.1 88.1 -157.2 89.2 -168.7 81.2C-180.2 73.2 -179.2 56.2 -180.2 41.1C-181.2 26.1 -184.2 13 -187.2 0L0 0Z" fill="#0a5fe4"></path><path d="M0 93.6C-6.2 88.5 -12.4 83.4 -18.5 81.1C-24.6 78.8 -30.6 79.4 -38.3 79.5C-45.9 79.5 -55.2 79.1 -58.2 73C-61.2 66.9 -57.9 55.2 -62.2 49.6C-66.6 44 -78.6 44.6 -84.3 40.6C-90.1 36.6 -89.6 28.1 -90.1 20.6C-90.6 13 -92.1 6.5 -93.6 0L0 0Z" fill="#0066ff"></path></g><g transform="translate(0, 780)"><path d="M0 -468C28.6 -434.3 57.1 -400.5 89.7 -392.9C122.2 -385.3 158.7 -403.7 195.2 -405.4C231.8 -407.1 268.3 -392 291.8 -365.9C315.3 -339.8 325.8 -302.6 340.9 -271.8C355.9 -241.1 375.6 -216.7 393.7 -189.6C411.9 -162.5 428.5 -132.6 440.7 -100.6C452.8 -68.5 460.4 -34.3 468 0L0 0Z" fill="#29324d"></path><path d="M0 -374.4C22.9 -347.4 45.7 -320.4 71.7 -314.3C97.8 -308.2 127 -323 156.2 -324.3C185.4 -325.7 214.6 -313.6 233.4 -292.7C252.2 -271.8 260.6 -242.1 272.7 -217.5C284.8 -192.9 300.5 -173.4 315 -151.7C329.5 -130 342.8 -106.1 352.5 -80.5C362.2 -54.8 368.3 -27.4 374.4 0L0 0Z" fill="#28417d"></path><path d="M0 -280.8C17.1 -260.6 34.3 -240.3 53.8 -235.7C73.3 -231.2 95.2 -242.2 117.1 -243.3C139.1 -244.3 161 -235.2 175.1 -219.5C189.2 -203.9 195.5 -181.6 204.5 -163.1C213.6 -144.6 225.3 -130 236.2 -113.8C247.1 -97.5 257.1 -79.6 264.4 -60.3C271.7 -41.1 276.2 -20.6 280.8 0L0 0Z" fill="#1e51b0"></path><path d="M0 -187.2C11.4 -173.7 22.9 -160.2 35.9 -157.2C48.9 -154.1 63.5 -161.5 78.1 -162.2C92.7 -162.9 107.3 -156.8 116.7 -146.4C126.1 -135.9 130.3 -121 136.4 -108.7C142.4 -96.4 150.2 -86.7 157.5 -75.8C164.7 -65 171.4 -53.1 176.3 -40.2C181.1 -27.4 184.2 -13.7 187.2 0L0 0Z" fill="#0a5fe4"></path><path d="M0 -93.6C5.7 -86.9 11.4 -80.1 17.9 -78.6C24.4 -77.1 31.7 -80.7 39 -81.1C46.4 -81.4 53.7 -78.4 58.4 -73.2C63.1 -68 65.2 -60.5 68.2 -54.4C71.2 -48.2 75.1 -43.3 78.7 -37.9C82.4 -32.5 85.7 -26.5 88.1 -20.1C90.6 -13.7 92.1 -6.9 93.6 0L0 0Z" fill="#0066ff"></path></g></svg>