<?xml version="1.0" encoding="UTF-8" standalone="no"?>
<svg
   width="30"
   height="24.006887"
   viewBox="0 0 30 24.006887"
   version="1.1"
   id="svg9"
   sodipodi:docname="contact.svg"
   inkscape:version="1.1.1 (3bf5ae0d25, 2021-09-20)"
   xmlns:inkscape="http://www.inkscape.org/namespaces/inkscape"
   xmlns:sodipodi="http://sodipodi.sourceforge.net/DTD/sodipodi-0.dtd"
   xmlns="http://www.w3.org/2000/svg"
   xmlns:svg="http://www.w3.org/2000/svg"
   xmlns:rdf="http://www.w3.org/1999/02/22-rdf-syntax-ns#"
   xmlns:cc="http://creativecommons.org/ns#"
   xmlns:dc="http://purl.org/dc/elements/1.1/">
  <defs
     id="defs13" />
  <sodipodi:namedview
     id="namedview11"
     pagecolor="#505050"
     bordercolor="#eeeeee"
     borderopacity="1"
     inkscape:pageshadow="0"
     inkscape:pageopacity="0"
     inkscape:pagecheckerboard="0"
     showgrid="false"
     inkscape:zoom="17.166667"
     inkscape:cx="3.2038835"
     inkscape:cy="9.4077671"
     inkscape:window-width="1920"
     inkscape:window-height="1009"
     inkscape:window-x="1272"
     inkscape:window-y="-8"
     inkscape:window-maximized="1"
     inkscape:current-layer="svg9"
     fit-margin-top="0"
     fit-margin-left="0"
     fit-margin-right="0"
     fit-margin-bottom="0" />
  <!-- Uploaded to SVGRepo https://www.svgrepo.com -->
  <title
     id="title2">ic_fluent_contact_card_24_filled</title>
  <desc
     id="desc4">Created with Sketch.</desc>
  <g
     id="ðŸ”-Product-Icons"
     stroke="none"
     stroke-width="1"
     fill="none"
     fill-rule="evenodd"
     style="fill:#959da5;fill-opacity:1"
     transform="matrix(1.5,0,0,1.5,-3,-6)">
    <g
       id="ic_fluent_contact_card_24_filled"
       fill="#212121"
       fill-rule="nonzero"
       style="fill:#959da5;fill-opacity:1">
      <path
         d="M 19.75,4 C 20.992641,4 22,5.0073593 22,6.25 v 11.504591 c 0,1.242641 -1.007359,2.25 -2.25,2.25 H 4.25 c -1.2426407,0 -2.25,-1.007359 -2.25,-2.25 V 6.25 C 2,5.0073593 3.0073593,4 4.25,4 Z m -10,8.5 h -3.5 c -0.3796958,0 -0.693491,0.282154 -0.7431534,0.648229 L 5.5,13.25 v 0.491758 l 0.00787,0.108372 c 0.162608,1.113532 1.0942627,1.65081 2.4920796,1.65081 1.3311653,0 2.2395804,-0.486822 2.4637004,-1.494586 L 10.492104,13.851278 10.5,13.742732 V 13.25 c 0,-0.379696 -0.282154,-0.693491 -0.6482294,-0.743153 z m 8,0.49614 h -4.497706 l -0.101771,0.0068 c -0.366075,0.04966 -0.648229,0.363458 -0.648229,0.743153 0,0.379696 0.282154,0.693491 0.648229,0.743154 l 0.101771,0.0068 H 17.75 l 0.101771,-0.0068 C 18.217846,14.439631 18.5,14.125836 18.5,13.74614 c 0,-0.379695 -0.282154,-0.693491 -0.648229,-0.743153 z M 8,8.5021811 c -0.8284129,0 -1.4999743,0.6715614 -1.4999743,1.4999739 0,0.828413 0.6715614,1.499975 1.4999743,1.499975 0.8284129,0 1.4999743,-0.671562 1.4999743,-1.499975 C 9.4999743,9.1737425 8.8284129,8.5021811 8,8.5021811 Z M 17.75,9.5 h -4.497706 l -0.101771,0.00685 c -0.366075,0.049659 -0.648229,0.3634542 -0.648229,0.74315 0,0.379696 0.282154,0.693491 0.648229,0.743153 L 13.252294,11 H 17.75 l 0.101771,-0.0068 C 18.217846,10.943491 18.5,10.629696 18.5,10.25 18.5,9.8703042 18.217846,9.556509 17.851771,9.5068466 Z"
         id="ðŸŽ¨-Color"
         style="fill:#959da5;fill-opacity:1" />
    </g>
  </g>
  <metadata
     id="metadata830">
    <rdf:RDF>
      <cc:Work
         rdf:about="">
        <dc:title>ic_fluent_contact_card_24_filled</dc:title>
      </cc:Work>
    </rdf:RDF>
  </metadata>
</svg>
