<?xml version="1.0" encoding="UTF-8" standalone="no"?>
<svg
   width="20.108"
   height="14"
   viewBox="0 0 20.108 14"
   version="1.1"
   id="svg6"
   sodipodi:docname="eye.svg"
   inkscape:version="1.1.1 (3bf5ae0d25, 2021-09-20)"
   xmlns:inkscape="http://www.inkscape.org/namespaces/inkscape"
   xmlns:sodipodi="http://sodipodi.sourceforge.net/DTD/sodipodi-0.dtd"
   xmlns="http://www.w3.org/2000/svg"
   xmlns:svg="http://www.w3.org/2000/svg">
  <defs
     id="defs10" />
  <sodipodi:namedview
     id="namedview8"
     pagecolor="#505050"
     bordercolor="#eeeeee"
     borderopacity="1"
     inkscape:pageshadow="0"
     inkscape:pageopacity="0"
     inkscape:pagecheckerboard="0"
     showgrid="false"
     fit-margin-top="0"
     fit-margin-left="0"
     fit-margin-right="0"
     fit-margin-bottom="0"
     inkscape:zoom="24.277333"
     inkscape:cx="11.492201"
     inkscape:cy="9.4120718"
     inkscape:window-width="1920"
     inkscape:window-height="1009"
     inkscape:window-x="1272"
     inkscape:window-y="-8"
     inkscape:window-maximized="1"
     inkscape:current-layer="svg6" />
  <path
     d="M 10.054,0 C 2.421,0 0.127,6.617 0.106,6.684 L 0,7 0.105,7.316 C 0.127,7.383 2.421,14 10.054,14 17.687,14 19.981,7.383 20.002,7.316 L 20.108,7 20.003,6.684 C 19.981,6.617 17.687,0 10.054,0 Z m 0,11 c -2.206,0 -4,-1.794 -4,-4 0,-2.206 1.794,-4 4,-4 2.206,0 4,1.794 4,4 0,2.206 -1.794,4 -4,4 z"
     id="path2"
     style="fill:#959da5;fill-opacity:1" />
  <path
     d="m 10.054,5 c -1.084,0 -2,0.916 -2,2 0,1.084 0.916,2 2,2 1.084,0 2,-0.916 2,-2 0,-1.084 -0.916,-2 -2,-2 z"
     id="path4"
     style="fill:#959da5;fill-opacity:1" />
</svg>
