<?xml version="1.0" encoding="UTF-8" standalone="no"?>
<svg
   xml:space="preserve"
   viewBox="0 0 9.5893335 15"
   y="0"
   x="0"
   id="圖層_1"
   version="1.1"
   width="19.178667"
   height="30"
   sodipodi:docname="female-1.1s-200px.svg"
   inkscape:version="1.1.1 (3bf5ae0d25, 2021-09-20)"
   xmlns:inkscape="http://www.inkscape.org/namespaces/inkscape"
   xmlns:sodipodi="http://sodipodi.sourceforge.net/DTD/sodipodi-0.dtd"
   xmlns="http://www.w3.org/2000/svg"
   xmlns:svg="http://www.w3.org/2000/svg"
   xmlns:d="https://loading.io/stock/"><defs
     id="defs21" /><sodipodi:namedview
     id="namedview19"
     pagecolor="#505050"
     bordercolor="#eeeeee"
     borderopacity="1"
     inkscape:pageshadow="0"
     inkscape:pageopacity="0"
     inkscape:pagecheckerboard="0"
     showgrid="false"
     fit-margin-top="0"
     fit-margin-left="0"
     fit-margin-right="0"
     fit-margin-bottom="0"
     inkscape:zoom="8.24"
     inkscape:cx="8.0097087"
     inkscape:cy="25.06068"
     inkscape:window-width="1920"
     inkscape:window-height="1009"
     inkscape:window-x="1272"
     inkscape:window-y="-8"
     inkscape:window-maximized="1"
     inkscape:current-layer="圖層_1" /><g
     class="ldl-scale"
     id="g16"
     transform="matrix(0.16666667,0,0,0.16666667,-3.5386667,-0.83333335)"><g
   id="g4"><path
     fill="#ed1e79"
     d="M 50,62.537 C 34.137,62.537 21.232,49.632 21.232,33.769 21.232,17.906 34.137,5 50,5 65.863,5 78.768,17.905 78.768,33.768 78.768,49.631 65.863,62.537 50,62.537 Z m 0,-49.091 c -11.206,0 -20.323,9.117 -20.323,20.323 0,11.206 9.117,20.322 20.323,20.322 11.206,0 20.323,-9.117 20.323,-20.323 C 70.323,22.562 61.206,13.446 50,13.446 Z"
     style="fill:#959da5"
     id="path2" /></g>
<g
   id="g8"><path
     fill="#ed1e79"
     d="M 50,95 A 4.223,4.223 0 0 1 45.777,90.777 V 60.953 a 4.223,4.223 0 0 1 8.446,0 V 90.777 A 4.223,4.223 0 0 1 50,95 Z"
     style="fill:#959da5"
     id="path6" /></g>
<g
   id="g12"><path
     fill="#ed1e79"
     d="M 65.836,79.032 H 34.164 a 4.223,4.223 0 0 1 0,-8.446 h 31.672 a 4.223,4.223 0 1 1 0,8.446 z"
     style="fill:#959da5"
     id="path10" /></g>
<metadata
   id="metadata14"><d:name
   style="animation-play-state:paused">female</d:name>
<d:tags
   style="animation-play-state:paused">gender,sex,lady,girl,female,people</d:tags>
<d:license
   style="animation-play-state:paused">by</d:license>
<d:slug
   style="animation-play-state:paused">33rn0k</d:slug></metadata></g><!-- generated by https://loading.io/ --></svg>
