<?xml version="1.0" encoding="UTF-8" standalone="no"?>
<!-- Generator: Adobe Illustrator 19.0.0, SVG Export Plug-In . SVG Version: 6.00 Build 0)  -->

<svg
   version="1.1"
   id="Layer_1"
   x="0px"
   y="0px"
   viewBox="0 0 30 29.975958"
   xml:space="preserve"
   sodipodi:docname="genders-gender-svgrepo-com.svg"
   width="30"
   height="29.975958"
   inkscape:version="1.1.1 (3bf5ae0d25, 2021-09-20)"
   xmlns:inkscape="http://www.inkscape.org/namespaces/inkscape"
   xmlns:sodipodi="http://sodipodi.sourceforge.net/DTD/sodipodi-0.dtd"
   xmlns="http://www.w3.org/2000/svg"
   xmlns:svg="http://www.w3.org/2000/svg"><defs
   id="defs41" /><sodipodi:namedview
   id="namedview39"
   pagecolor="#505050"
   bordercolor="#eeeeee"
   borderopacity="1"
   inkscape:pageshadow="0"
   inkscape:pageopacity="0"
   inkscape:pagecheckerboard="0"
   showgrid="false"
   fit-margin-top="0"
   fit-margin-left="0"
   fit-margin-right="0"
   fit-margin-bottom="0"
   inkscape:zoom="9.3100763"
   inkscape:cx="13.533724"
   inkscape:cy="30.558289"
   inkscape:window-width="1920"
   inkscape:window-height="1009"
   inkscape:window-x="1272"
   inkscape:window-y="-8"
   inkscape:window-maximized="1"
   inkscape:current-layer="Layer_1" />
<g
   id="g6"
   transform="matrix(0.05991995,0,0,0.05991995,-6.00186e-7,-0.01199897)"
   style="fill:#959da5;fill-opacity:1">
	<g
   id="g4"
   style="fill:#959da5;fill-opacity:1">
		<path
   d="M 362,180.467 V 73.8 l 21.333,22.4 c 10.667,10.667 25.6,4.267 28.8,1.067 8.533,-8.533 8.533,-21.333 1.067,-29.867 L 354.534,6.6 c -7.467,-8.533 -22.4,-8.533 -29.867,0 l -57.6,60.8 c -7.467,8.533 -7.467,22.4 1.067,29.867 8.533,7.467 22.4,7.467 29.867,-1.067 l 21.333,-22.4 v 106.667 c -16,2.133 -32,7.467 -46.933,13.867 -25.6,-17.067 -55.467,-25.6 -87.467,-25.6 -20.267,0 -39.467,3.2 -57.6,10.667 l -32,-59.733 35.2,-19.2 c 10.667,-6.4 13.867,-19.2 8.533,-28.8 -6.4,-10.667 -19.2,-13.867 -28.8,-8.533 l -35.2,19.2 L 61.2,55.666 C 55.867,46.066 44.133,41.799 33.467,47.133 23.867,52.466 19.6,64.2 24.934,74.866 l 14.933,27.734 -28.8,16 C 0.4,125 -2.8,137.8 2.534,147.4 c 3.2,6.4 10.667,10.667 18.133,10.667 3.2,0 6.4,-1.067 9.6,-3.2 l 28.8,-16 32,59.733 c -64,45.867 -86.4,134.4 -48,205.867 28.8,53.333 82.133,85.333 141.867,85.333 23.467,0 46.933,-5.333 68.267,-16 25.6,17.067 55.467,26.667 87.467,26.667 88.533,0 160,-72.533 160,-161.067 C 500.667,259.4 439.867,191.133 362,180.467 Z m -177.066,268.8 c -43.734,0 -84.267,-24.534 -104.534,-62.934 -30.933,-57.6 -8.533,-130.133 49.067,-161.067 17.067,-8.533 36.267,-13.867 55.467,-13.867 17.067,0 33.067,3.2 48,10.667 -32,29.867 -52.267,71.467 -52.267,118.4 0,39.467 13.867,75.733 37.333,103.467 -10.666,3.201 -22.4,5.334 -33.066,5.334 z M 256.4,424.734 c -21.333,-21.333 -34.133,-51.2 -34.133,-83.2 0,-38.4 18.133,-73.6 46.933,-94.933 7.467,7.466 14.934,17.066 20.267,27.733 27.733,52.266 12.8,116.266 -33.067,150.4 z M 340.667,461 c -17.067,0 -34.133,-4.267 -49.067,-10.667 54.4,-48 70.4,-129.067 35.2,-196.267 -5.333,-9.6 -11.733,-19.2 -18.133,-27.733 10.667,-3.2 21.333,-4.267 32,-4.267 65.067,0 118.4,53.333 118.4,119.467 0,66.134 -53.334,119.467 -118.4,119.467 z"
   id="path2"
   style="fill:#959da5;fill-opacity:1" />
	</g>
</g>
<g
   id="g8"
   transform="translate(-1.0016464e-5,-0.20025)">
</g>
<g
   id="g10"
   transform="translate(-1.0016464e-5,-0.20025)">
</g>
<g
   id="g12"
   transform="translate(-1.0016464e-5,-0.20025)">
</g>
<g
   id="g14"
   transform="translate(-1.0016464e-5,-0.20025)">
</g>
<g
   id="g16"
   transform="translate(-1.0016464e-5,-0.20025)">
</g>
<g
   id="g18"
   transform="translate(-1.0016464e-5,-0.20025)">
</g>
<g
   id="g20"
   transform="translate(-1.0016464e-5,-0.20025)">
</g>
<g
   id="g22"
   transform="translate(-1.0016464e-5,-0.20025)">
</g>
<g
   id="g24"
   transform="translate(-1.0016464e-5,-0.20025)">
</g>
<g
   id="g26"
   transform="translate(-1.0016464e-5,-0.20025)">
</g>
<g
   id="g28"
   transform="translate(-1.0016464e-5,-0.20025)">
</g>
<g
   id="g30"
   transform="translate(-1.0016464e-5,-0.20025)">
</g>
<g
   id="g32"
   transform="translate(-1.0016464e-5,-0.20025)">
</g>
<g
   id="g34"
   transform="translate(-1.0016464e-5,-0.20025)">
</g>
<g
   id="g36"
   transform="translate(-1.0016464e-5,-0.20025)">
</g>
</svg>
