<?xml version="1.0" encoding="UTF-8" standalone="no"?>
<!-- Generator: Adobe Illustrator 19.0.0, SVG Export Plug-In . SVG Version: 6.00 Build 0)  -->

<svg
   version="1.1"
   id="Layer_1"
   x="0px"
   y="0px"
   viewBox="0 0 30 21.296722"
   xml:space="preserve"
   sodipodi:docname="helicopter-svgrepo-com.svg"
   width="30"
   height="21.296722"
   inkscape:version="1.1.1 (3bf5ae0d25, 2021-09-20)"
   xmlns:inkscape="http://www.inkscape.org/namespaces/inkscape"
   xmlns:sodipodi="http://sodipodi.sourceforge.net/DTD/sodipodi-0.dtd"
   xmlns="http://www.w3.org/2000/svg"
   xmlns:svg="http://www.w3.org/2000/svg"><defs
   id="defs47" /><sodipodi:namedview
   id="namedview45"
   pagecolor="#505050"
   bordercolor="#eeeeee"
   borderopacity="1"
   inkscape:pageshadow="0"
   inkscape:pageopacity="0"
   inkscape:pagecheckerboard="0"
   showgrid="false"
   fit-margin-top="0"
   fit-margin-left="0"
   fit-margin-right="0"
   fit-margin-bottom="0"
   inkscape:zoom="4.5496629"
   inkscape:cx="13.407587"
   inkscape:cy="21.869752"
   inkscape:window-width="1920"
   inkscape:window-height="1009"
   inkscape:window-x="1272"
   inkscape:window-y="-8"
   inkscape:window-maximized="1"
   inkscape:current-layer="Layer_1" />
<g
   id="g6"
   transform="matrix(0.05856354,0,0,0.05856354,3.2335317e-5,-4.3515901)"
   style="fill:#959da5;fill-opacity:1">
	<g
   id="g4"
   style="fill:#959da5;fill-opacity:1">
		<path
   d="M 505.305,159.771 326.958,125.638 505.305,91.505 c 4.267,-0.853 7.68,-5.12 6.827,-10.24 -0.853,-4.267 -5.12,-7.68 -10.24,-6.827 l -211.627,40.96 v -6.827 c 0,-5.12 -3.413,-8.533 -8.533,-8.533 h -51.2 c -5.12,0 -8.533,3.413 -8.533,8.533 v 6.827 L 10.372,74.437 c -5.12,-0.853 -9.387,2.56 -10.24,6.827 -0.853,5.12 2.56,9.387 6.827,10.24 L 185.306,125.637 6.958,159.771 c -4.267,0.853 -7.68,5.12 -6.827,10.24 0.853,4.267 4.267,6.827 8.533,6.827 0.853,0 0.853,0 1.707,0 l 211.627,-40.96 v 6.827 c 0,5.12 3.413,8.533 8.533,8.533 h 17.067 v 17.067 h -17.067 c 0,-5.12 -3.413,-8.533 -8.533,-8.533 h -42.667 c -5.12,0 -8.533,3.413 -8.533,8.533 v 34.133 h -34.133 c -5.12,0 -8.533,3.413 -8.533,8.533 0,5.12 3.413,8.533 8.533,8.533 h 42.667 8.533 c -11.093,9.387 -17.067,23.893 -17.067,39.253 v 20.48 H 8.665 c -5.12,0 -8.533,3.413 -8.533,8.533 0,5.12 3.413,8.533 8.533,8.533 h 34.133 v 8.533 h -1.707 c -8.533,0 -15.36,6.827 -15.36,15.36 v 20.48 c 0,8.533 6.827,15.36 15.36,15.36 h 20.48 c 8.533,0 15.36,-6.827 15.36,-15.36 v -20.48 c 0,-8.533 -6.827,-15.36 -15.36,-15.36 h -1.707 v -8.533 h 68.267 v 8.533 h -1.707 c -8.533,0 -15.36,6.827 -15.36,15.36 v 20.48 c 0,8.533 6.827,15.36 15.36,15.36 h 20.48 c 8.533,0 15.36,-6.827 15.36,-15.36 v -20.48 c 0,-8.533 -6.827,-15.36 -15.36,-15.36 h -1.707 v -8.533 h 25.6 v 11.093 c 0,17.067 7.68,31.573 20.48,41.813 l -33.28,33.28 c -4.267,-5.12 -10.24,-9.387 -17.92,-9.387 h -6.827 c -11.947,0 -22.187,10.24 -22.187,22.187 v 20.48 c 0,11.947 10.24,22.187 22.187,22.187 h 6.827 c 11.947,0 22.187,-10.24 22.187,-22.187 v -13.653 l 45.227,-45.227 c 1.707,0.853 3.413,0.853 4.267,1.707 l 9.387,1.707 c 8.533,1.707 17.92,2.56 26.453,3.413 v 9.387 h -1.707 c -8.533,0 -15.36,6.827 -15.36,15.36 v 20.48 c 0,8.533 6.827,15.36 15.36,15.36 h 20.48 c 8.533,0 15.36,-6.827 15.36,-15.36 v -20.48 c 0,-8.533 -6.827,-15.36 -15.36,-15.36 h -1.707 v -8.533 c 9.387,-0.853 17.92,-1.707 26.453,-3.413 l 9.387,-1.707 c 1.707,0 3.413,-0.853 4.267,-1.707 l 45.227,45.227 v 12.8 c 0,11.947 10.24,22.187 22.187,22.187 h 6.827 c 11.947,0 22.187,-10.24 22.187,-22.187 v -20.48 c 0,-11.947 -10.24,-22.187 -22.187,-22.187 h -6.827 c -7.68,0 -13.653,3.413 -17.92,9.387 l -33.28,-33.28 c 12.8,-9.387 20.48,-24.747 20.48,-41.813 v -11.093 h 25.6 v 8.533 h -1.707 c -8.533,0 -15.36,6.827 -15.36,15.36 v 20.48 c 0,8.533 6.827,15.36 15.36,15.36 h 20.48 c 8.533,0 15.36,-6.827 15.36,-15.36 v -20.48 c 0,-8.533 -6.827,-15.36 -15.36,-15.36 h -1.707 v -8.533 h 68.267 v 8.533 h -1.707 c -8.533,0 -15.36,6.827 -15.36,15.36 v 20.48 c 0,8.533 6.827,15.36 15.36,15.36 h 20.48 c 8.533,0 15.36,-6.827 15.36,-15.36 v -20.48 c 0,-8.533 -6.827,-15.36 -15.36,-15.36 h -1.707 v -8.533 h 34.133 c 5.12,0 8.533,-3.413 8.533,-8.533 0,-4.267 -3.413,-8.533 -8.533,-8.533 H 341.465 v -20.48 c 0,-15.36 -6.827,-29.013 -17.067,-39.253 h 8.533 42.667 c 5.12,0 8.533,-3.413 8.533,-8.533 0,-5.12 -3.413,-8.533 -8.533,-8.533 h -34.133 v -34.133 c 0,-5.12 -3.413,-8.533 -8.533,-8.533 h -42.667 c -5.12,0 -8.533,3.413 -8.533,8.533 h -17.067 v -17.067 h 17.067 c 5.12,0 8.533,-3.413 8.533,-8.533 v -6.827 l 211.627,40.96 c 0.853,0 0.853,0 1.707,0 4.267,0 7.68,-2.56 8.533,-6.827 0.853,-4.268 -2.56,-9.388 -6.827,-10.241 z m -317.44,42.666 v -25.6 h 25.6 v 25.6 z m 110.933,-25.6 h 25.6 v 25.6 h -25.6 z m 11.094,69.12 c 3.413,1.707 5.12,4.267 5.12,7.68 v 34.133 h 0.853 c 0,2.56 -1.707,5.12 -3.413,6.827 -1.706,1.707 -3.413,1.707 -5.12,1.707 -0.853,0 -2.56,0 -3.413,-0.853 -24.747,-10.24 -70.827,-10.24 -96.427,0 -2.56,0.853 -5.973,0.853 -7.68,-0.853 -1.707,-0.853 -3.413,-3.413 -3.413,-6.827 v -34.133 c 0,-3.413 1.707,-6.827 5.12,-7.68 29.866,-11.947 79.359,-11.947 108.373,-0.001 z m -28.16,-60.586 v 17.067 h -51.2 v -17.067 z"
   id="path2"
   style="fill:#959da5;fill-opacity:1" />
	</g>
</g>
<g
   id="g12"
   transform="translate(5.5214142e-4,-74.305445)">
	<g
   id="g10">
		<path
   d="m 213.465,259.611 v 16.213 c 12.8,-3.413 27.307,-5.12 42.667,-5.12 15.36,0 29.867,1.707 42.667,5.12 v -16.213 c -23.894,-6.827 -61.441,-6.827 -85.334,0 z"
   id="path8" />
	</g>
</g>
<g
   id="g14"
   transform="translate(5.5214142e-4,-74.305445)">
</g>
<g
   id="g16"
   transform="translate(5.5214142e-4,-74.305445)">
</g>
<g
   id="g18"
   transform="translate(5.5214142e-4,-74.305445)">
</g>
<g
   id="g20"
   transform="translate(5.5214142e-4,-74.305445)">
</g>
<g
   id="g22"
   transform="translate(5.5214142e-4,-74.305445)">
</g>
<g
   id="g24"
   transform="translate(5.5214142e-4,-74.305445)">
</g>
<g
   id="g26"
   transform="translate(5.5214142e-4,-74.305445)">
</g>
<g
   id="g28"
   transform="translate(5.5214142e-4,-74.305445)">
</g>
<g
   id="g30"
   transform="translate(5.5214142e-4,-74.305445)">
</g>
<g
   id="g32"
   transform="translate(5.5214142e-4,-74.305445)">
</g>
<g
   id="g34"
   transform="translate(5.5214142e-4,-74.305445)">
</g>
<g
   id="g36"
   transform="translate(5.5214142e-4,-74.305445)">
</g>
<g
   id="g38"
   transform="translate(5.5214142e-4,-74.305445)">
</g>
<g
   id="g40"
   transform="translate(5.5214142e-4,-74.305445)">
</g>
<g
   id="g42"
   transform="translate(5.5214142e-4,-74.305445)">
</g>
</svg>
