<?xml version="1.0" encoding="UTF-8" standalone="no"?>
<svg
   viewBox="0 0 12.601562 12.601562"
   width="12.601562"
   height="12.601562"
   version="1.1"
   id="svg5"
   sodipodi:docname="instagram_mono.svg"
   inkscape:version="1.1.1 (3bf5ae0d25, 2021-09-20)"
   xmlns:inkscape="http://www.inkscape.org/namespaces/inkscape"
   xmlns:sodipodi="http://sodipodi.sourceforge.net/DTD/sodipodi-0.dtd"
   xmlns="http://www.w3.org/2000/svg"
   xmlns:svg="http://www.w3.org/2000/svg">
  <defs
     id="defs9" />
  <sodipodi:namedview
     id="namedview7"
     pagecolor="#505050"
     bordercolor="#eeeeee"
     borderopacity="1"
     inkscape:pageshadow="0"
     inkscape:pageopacity="0"
     inkscape:pagecheckerboard="0"
     showgrid="false"
     fit-margin-top="0"
     fit-margin-left="0"
     fit-margin-right="0"
     fit-margin-bottom="0"
     inkscape:zoom="24.277333"
     inkscape:cx="1.3592926"
     inkscape:cy="6.487533"
     inkscape:window-width="1920"
     inkscape:window-height="1009"
     inkscape:window-x="1272"
     inkscape:window-y="-8"
     inkscape:window-maximized="1"
     inkscape:current-layer="svg5" />
  <g
     id="surface9199233"
     transform="translate(-5.699219,-5.699219)"
     style="fill:#959da5;fill-opacity:1">
    <path
       style="fill:#959da5;fill-opacity:1;fill-rule:nonzero;stroke:none"
       d="m 9.199219,5.699219 c -1.933594,0 -3.5,1.566406 -3.5,3.5 v 5.601562 c 0,1.933594 1.566406,3.5 3.5,3.5 h 5.601562 c 1.933594,0 3.5,-1.566406 3.5,-3.5 V 9.199219 c 0,-1.933594 -1.566406,-3.5 -3.5,-3.5 z m 7,1.402343 c 0.386719,0 0.699219,0.3125 0.699219,0.699219 C 16.898438,8.1875 16.585938,8.5 16.199219,8.5 15.8125,8.5 15.5,8.1875 15.5,7.800781 15.5,7.414062 15.8125,7.101562 16.199219,7.101562 Z M 12,8.5 c 1.933594,0 3.5,1.566406 3.5,3.5 0,1.933594 -1.566406,3.5 -3.5,3.5 -1.933594,0 -3.5,-1.566406 -3.5,-3.5 0,-1.933594 1.566406,-3.5 3.5,-3.5 z m 0,1.398438 c -1.160156,0 -2.101562,0.941406 -2.101562,2.101562 0,1.160156 0.941406,2.101562 2.101562,2.101562 1.160156,0 2.101562,-0.941406 2.101562,-2.101562 0,-1.160156 -0.941406,-2.101562 -2.101562,-2.101562 z m 0,0"
       id="path2" />
  </g>
</svg>
