<?xml version="1.0" encoding="UTF-8" standalone="no"?>
<svg
   version="1.1"
   width="32.181328pt"
   height="33.050697pt"
   viewBox="0 0 32.181327 33.050697"
   id="svg88"
   xmlns="http://www.w3.org/2000/svg">
  <defs
     id="defs92">
    <clipPath
       id="cp0">
      <path
         transform="matrix(1,0,0,-1,0,99.2126)"
         d="M 0,99.213 H 325.984 V 0 H 0 Z"
         id="path4" />
    </clipPath>
  </defs>
  <g
     enable-background="new"
     id="g86"
     transform="translate(-126.98079,-29.150608)">
    <g
       id="g124">
      <path
         d="m 152.53762,31.293032 c -0.131,0.161 -0.368,0.185 -0.529,0.053 -0.161,-0.131 -0.185,-0.368 -0.054,-0.529 0.132,-0.161 0.369,-0.185 0.53,-0.053 0.16,0.131 0.184,0.368 0.053,0.529 m -18.585,19.974 c -0.131,0.161 -0.368,0.185 -0.529,0.054 -0.161,-0.132 -0.185,-0.369 -0.053,-0.529 0.131,-0.162 0.368,-0.185 0.529,-0.054 0.161,0.132 0.185,0.368 0.053,0.529 m 19.219,-22.107 c -0.834,-0.14 -2.282,1.319 -2.868,1.776 -0.621,0.483 -1.24,0.971 -1.855,1.462 -0.705,0.563 -1.406,1.131 -2.101,1.704 -5.606,4.626 -11.115,10.099 -14.381,16.674 -0.139,0.28 -0.278,0.588 -0.218,0.895 0.069,0.354 0.383,0.605 0.699,0.778 0.145,0.078 0.297,0.145 0.453,0.199 1.13,-0.49 1.394,-1.237 1.394,-1.237 1.651,-3.295 4.787,-6.991 7.669,-10 -3.293,4.009 -6.463,8.715 -7.297,10.146 -0.328,0.565 -0.704,0.947 -1.087,1.202 1.772,-0.148 2.664,-2.359 3.288,-3.34 1.177,-1.847 2.458,-3.628 3.835,-5.332 2.267,-2.807 4.813,-5.379 7.467,-7.82 1.425,-1.31 2.874,-2.736 4.477,-3.833 0.677,-0.462 1.737,-1.687 1.815,-2.221 0.077,-0.533 -0.554,-0.93 -1.29,-1.053"
         fill="#ffffff"
         id="path356" />
      <path
         d="m 141.96392,41.411232 c 3.312,-3.458 6.288,-6.011 6.288,-6.011 -1.666,0.79 -4.007,3.234 -6.288,6.011"
         fill="#231f20"
         id="path353" />
      <path
         d="m 152.44782,31.401932 c -0.162,0.11 -0.382,0.069 -0.493,-0.093 -0.111,-0.161 -0.069,-0.382 0.093,-0.493 0.161,-0.111 0.382,-0.069 0.493,0.093 0.11,0.161 0.069,0.382 -0.093,0.493 m 6.431,-0.782 c -0.532,-0.213 -0.876,0.182 -1.258,0.468 -0.445,0.333 -0.961,0.564 -1.525,0.565 -1.392,0.004 -3.488,-1.35 -4.078,-1.56 -0.59,-0.21 -9.956,-0.942 -12.076,-0.942 -2.119,-0.001 -12.165,0.067 -12.165,0.067 -0.333,0.439 -0.54,0.885 -0.638,1.317 0.129,0.537 0.435,1.035 0.866,1.382 0.766,0.618 1.752,0.466 2.669,0.464 3.303,-0.006 6.601,-0.163 9.906,-0.083 0.9,0.021 1.816,0.024 2.712,0.128 -0.288,-0.034 -0.589,-0.013 -0.879,-0.006 -4.011,0.098 -8.009,0.373 -12.022,0.435 -0.739,0.011 -1.524,0.011 -2.157,-0.373 -0.645,-0.392 -0.994,-1.108 -1.113,-1.869 -0.156,0.792 0.06,1.529 0.569,2.066 0.801,0.846 15.226,0.739 16.1,0.141 0.874,-0.598 0.199,-1.585 1.22,-1.559 1.021,0.026 6.684,0.559 7.947,0.532 1.077,-0.024 2.162,0.096 3.235,0.177 1.144,0.087 2.094,0.237 2.854,-0.85 0.042,-0.061 0.083,-0.127 0.086,-0.2 0.006,-0.14 -0.123,-0.247 -0.253,-0.3"
         fill="#ffffff"
         id="path350" />
      <path
         d="m 134.35352,59.592333 c 0.031,-0.2 -0.011,-0.396 -0.102,-0.569 0.618,-0.046 5.395,-0.747 6.08,-0.752 0.706,-0.006 1.155,0.949 1.155,0.949 -1.979,0.005 -6.461,0.363 -7.139,0.405 0.003,-0.011 0.005,-0.022 0.006,-0.033"
         fill="#ffffff"
         id="path347" />
      <path
         d="m 131.71832,58.017233 c 1.144,-0.01 1.74,0.797 1.92,1.875 0.172,1.03 -0.747,1.896 -1.89,1.905 -1.143,0.01 -2.077,-0.83 -2.085,-1.874 -0.008,-1.044 0.912,-1.897 2.055,-1.906 m 0.013,-0.404 c -1.388,0.011 -2.505,1.047 -2.494,2.314 0.009,1.267 1.142,2.284 2.53,2.274 1.388,-0.011 2.502,-1.063 2.294,-2.312 -0.219,-1.309 -0.943,-2.287 -2.33,-2.276"
         fill="#ffffff"
         id="path344" />
      <path
         d="m 130.00592,55.478135 c -0.007,-0.926 0.809,-1.683 1.822,-1.69 1.014,-0.008 1.841,0.747 1.703,1.663 -0.145,0.958 -0.662,1.68 -1.676,1.689 -1.014,0.008 -1.842,-0.736 -1.849,-1.662 m 3.899,-0.03 c 0.168,-1.112 -0.836,-2.028 -2.066,-2.018 -1.23,0.01 -2.22,0.928 -2.211,2.051 0.009,1.123 1.013,2.026 2.244,2.017 1.23,-0.01 1.858,-0.888 2.033,-2.05"
         fill="#ffffff"
         id="path341" />
      <path
         d="m 131.94822,57.731033 -0.002,-0.295 -0.591,0.005 0.003,0.295"
         fill="#ffffff"
         id="path338" />
      <path
         d="m 127.18022,53.121632 c 0.154,0.161 0.237,0.371 0.376,0.543 0.24,0.298 0.579,0.466 0.902,0.656 0.349,0.207 0.805,0.405 1.196,0.186 0.187,-0.106 0.334,-0.265 0.492,-0.407 0.136,-0.123 0.374,-0.329 0.573,-0.294 -0.029,0.133 -0.139,0.278 -0.203,0.401 -0.121,0.045 -0.227,0.116 -0.316,0.214 -0.103,0.097 -0.176,0.212 -0.218,0.345 -0.017,0.043 -0.035,0.085 -0.052,0.127 -0.012,0.095 -0.024,0.189 -0.036,0.284 v 0.009 c 0,0.06 0.006,0.119 0.016,0.176 l -0.246,0.47 c 0,0 0.018,-0.644 -0.57,-0.81 -0.588,-0.166 -2.143,-0.493 -2.113,-1.553 0.003,-0.101 -0.002,-0.241 0.038,-0.334 0.015,-0.034 0.047,-0.062 0.083,-0.06 0.031,0.002 0.057,0.025 0.078,0.047"
         fill="#ffffff"
         id="path335" />
      <path
         d="m 146.03912,56.957632 c 4.391,0.168 8.791,0.276 13.123,0.965 -0.217,0.158 -0.465,0.256 -0.725,0.322 -2.114,-0.227 -8.368,-0.895 -12.398,-1.287"
         fill="#ffffff"
         id="path332" />
      <path
         d="m 145.97362,57.581636 c 0.265,-0.002 0.481,0.211 0.483,0.476 0.002,0.264 -0.211,0.481 -0.475,0.483 -0.265,0.002 -0.482,-0.211 -0.484,-0.476 -0.002,-0.264 0.211,-0.481 0.476,-0.483 m -12.033,-1.09 c 1.233,0.255 2.496,0.327 3.738,0.538 0.665,0.113 1.326,0.269 1.958,0.507 0.417,0.158 0.83,0.346 1.191,0.609 0.314,0.229 0.808,0.649 0.811,1.074 1.432,-0.036 2.865,-0.087 4.297,-0.137 1.568,-0.054 3.136,-0.116 4.704,-0.197 1.566,-0.08 3.132,-0.179 4.696,-0.305 0.735,-0.059 1.469,-0.124 2.203,-0.196 0.25,-0.025 0.506,-0.054 0.753,-0.106 -3.989,-0.235 -10.654,-1.001 -13.889,-1.388 -3.429,-0.151 -6.846,-0.385 -10.215,-1.009 -0.002,0.022 -0.004,0.046 -0.007,0.068 -0.032,0.205 -0.117,0.392 -0.24,0.542"
         fill="#ffffff"
         id="path329" />
      <path
         d="m 146.02302,57.683232 -0.306,0.656 c -0.027,0.059 -0.002,0.129 0.058,0.157 0.059,0.028 0.129,0.002 0.157,-0.057 l 0.306,-0.656 c 0.027,-0.06 0.002,-0.13 -0.058,-0.158 -0.059,-0.027 -0.129,-0.002 -0.157,0.058"
         fill="#ffffff"
         id="path326" />
    </g>
  </g>
</svg>
