<?xml version="1.0" encoding="UTF-8" standalone="no"?>
<svg
   xml:space="preserve"
   viewBox="0 0 9.423665 15"
   y="0"
   x="0"
   id="圖層_1"
   version="1.1"
   width="18.84733"
   height="30"
   sodipodi:docname="male-1.1s-200px.svg"
   inkscape:version="1.1.1 (3bf5ae0d25, 2021-09-20)"
   xmlns:inkscape="http://www.inkscape.org/namespaces/inkscape"
   xmlns:sodipodi="http://sodipodi.sourceforge.net/DTD/sodipodi-0.dtd"
   xmlns="http://www.w3.org/2000/svg"
   xmlns:svg="http://www.w3.org/2000/svg"
   xmlns:d="https://loading.io/stock/"><defs
     id="defs21" /><sodipodi:namedview
     id="namedview19"
     pagecolor="#505050"
     bordercolor="#eeeeee"
     borderopacity="1"
     inkscape:pageshadow="0"
     inkscape:pageopacity="0"
     inkscape:pagecheckerboard="0"
     showgrid="false"
     fit-margin-top="0"
     fit-margin-left="0"
     fit-margin-right="0"
     fit-margin-bottom="0"
     inkscape:zoom="4.12"
     inkscape:cx="56.553398"
     inkscape:cy="51.334951"
     inkscape:window-width="1920"
     inkscape:window-height="1009"
     inkscape:window-x="1272"
     inkscape:window-y="-8"
     inkscape:window-maximized="1"
     inkscape:current-layer="圖層_1" /><g
     class="ldl-scale"
     id="g16"
     transform="matrix(0.16666664,0,0,0.16666664,-3.6214994,-0.8333309)"><g
   id="g4"><path
     fill="#0071bc"
     d="m 50,38.458 c 15.588,0 28.271,12.682 28.271,28.271 C 78.271,82.318 65.588,95 50,95 34.412,95 21.729,82.318 21.729,66.729 21.729,51.14 34.412,38.458 50,38.458 Z M 50,86.7 c 11.012,0 19.971,-8.959 19.971,-19.971 0,-11.012 -8.959,-19.971 -19.971,-19.971 -11.012,0 -19.971,8.959 -19.971,19.971 0,11.012 8.959,19.971 19.971,19.971 z"
     style="fill:#959da5"
     id="path2" /></g>
<g
   id="g8"><path
     fill="#0071bc"
     d="m 50,9.15 a 4.15,4.15 0 0 1 4.15,4.15 v 26.715 a 4.15,4.15 0 1 1 -8.3,0 V 13.3 A 4.15,4.15 0 0 1 50,9.15 Z"
     style="fill:#959da5"
     id="path6" /></g>
<g
   id="g12"><path
     fill="#0071bc"
     d="m 52.934,6.215 18.359,18.359 a 4.15,4.15 0 1 1 -5.869,5.868 l -12.49,-12.49 a 4.15,4.15 0 0 0 -5.869,0 L 34.576,30.442 A 4.15,4.15 0 0 1 28.707,24.574 L 47.066,6.215 a 4.15,4.15 0 0 1 5.868,0 z"
     style="fill:#959da5"
     id="path10" /></g>
<metadata
   id="metadata14"><d:name
   style="animation-play-state:paused">male</d:name>


<d:tags
   style="animation-play-state:paused">gender,sex,gentleman,boy,male,people</d:tags>


<d:license
   style="animation-play-state:paused">by</d:license>


<d:slug
   style="animation-play-state:paused">ltiwjg</d:slug></metadata></g><!-- generated by https://loading.io/ --></svg>
