<?xml version="1.0" encoding="UTF-8" standalone="no"?>
<svg
   width="30"
   height="18.968912"
   viewBox="0 -23 30 18.968912"
   fill="none"
   version="1.1"
   id="svg11"
   sodipodi:docname="other-gender.svg"
   inkscape:version="1.1.1 (3bf5ae0d25, 2021-09-20)"
   xmlns:inkscape="http://www.inkscape.org/namespaces/inkscape"
   xmlns:sodipodi="http://sodipodi.sourceforge.net/DTD/sodipodi-0.dtd"
   xmlns="http://www.w3.org/2000/svg"
   xmlns:svg="http://www.w3.org/2000/svg">
  <sodipodi:namedview
     id="namedview13"
     pagecolor="#505050"
     bordercolor="#eeeeee"
     borderopacity="1"
     inkscape:pageshadow="0"
     inkscape:pageopacity="0"
     inkscape:pagecheckerboard="0"
     showgrid="false"
     fit-margin-top="0"
     fit-margin-left="0"
     fit-margin-right="0"
     fit-margin-bottom="0"
     inkscape:zoom="3.2698413"
     inkscape:cx="11.315534"
     inkscape:cy="53.06068"
     inkscape:window-width="1920"
     inkscape:window-height="1009"
     inkscape:window-x="1272"
     inkscape:window-y="-8"
     inkscape:window-maximized="1"
     inkscape:current-layer="svg11" />
  <g
     clip-path="url(#clip0)"
     id="g4"
     transform="matrix(0.24027202,0,0,0.24027202,-0.12500477,-23.076493)"
     style="fill:#959da5;fill-opacity:1">
    <path
       d="m 96.6098,36.518 14.9292,0.8844 c -0.536,-0.8928 -1.117,-1.7581 -1.74,-2.5929 -1.603,-1.8784 -3.294,-3.683 -4.887,-5.5693 -2.002,-2.3674 -2.173,-4.2733 -0.596,-5.5971 1.521,-1.2779 3.427,-0.816 5.52,1.4268 2.069,2.2158 4.056,4.5079 6.13,6.7178 2.38,2.5378 4.792,5.0446 7.236,7.5204 2.63,2.6542 2.926,4.3756 0.619,7.3376 -3.17,4.0693 -6.521,8.0008 -9.862,11.933 -0.611,0.6562 -1.367,1.1604 -2.208,1.4716 -0.774,0.3626 -1.649,0.4506 -2.48,0.2503 -0.831,-0.2004 -1.57,-0.6774 -2.094,-1.3531 -0.538,-0.5917 -0.865,-1.3446 -0.93,-2.1414 -0.065,-0.7967 0.135,-1.5926 0.569,-2.2639 0.702,-1.0009 1.519,-1.9169 2.432,-2.7291 1.963,-1.9572 3.965,-3.8724 6.545,-6.3888 -6.834,-1.0396 -12.818,-1.1452 -19.176,-1.4104 -0.1372,1.2694 -0.1752,2.349 -0.3846,3.3945 -0.2501,1.5344 -0.6354,3.0437 -1.1506,4.5104 -0.34,0.7091 -0.8834,1.3013 -1.5608,1.7014 -0.6773,0.4002 -1.4577,0.5905 -2.2433,0.5468 -0.7856,-0.0438 -1.5404,-0.3196 -2.1686,-0.7926 -0.6287,-0.4729 -1.1026,-1.1219 -1.3625,-1.8645 -0.3603,-1.3979 -0.5618,-2.8319 -0.6012,-4.2749 0.0374,-1.2139 0.1601,-2.4234 0.3675,-3.6201 l -8.256,-0.5252 C 78.8631,44.4949 78.5296,45.7591 78.1555,47.01 73.4004,62.9118 62.8058,73.0587 47.1632,78.0082 43.8846,79.0681 40.4279,79.4646 36.9945,79.1732 33.5612,78.8824 30.2202,77.9097 27.1667,76.3128 17.4168,71.5012 9.43885,63.7289 4.37473,54.1077 -0.909449,44.1464 -0.631181,33.9633 4.41671,24.029 10.9098,11.2501 21.0508,3.06048 35.4213,0.610374 36.857,0.343833 38.3207,0.259177 39.7775,0.358799 47.7547,0.973006 55.4113,3.75962 61.9171,8.41659 68.0558,12.8104 73,18.6675 76.302,25.456 c 1.593,3.1656 2.5643,6.6446 4.0568,10.6174 1.8483,0.0716 4.2722,0.1896 6.6947,0.2494 1.3127,0.0321 1.6553,-0.9095 1.8128,-1.9912 0.2258,-1.5542 0.3846,-3.1256 0.7279,-4.6549 0.5907,-2.6306 2.1291,-4.0529 3.938,-3.814 1.7669,0.233 2.9017,1.7012 3.052,4.2662 0.1221,1.9874 0.0256,3.9895 0.0256,6.3891 z M 7.235,39.3583 c -0.00591,4.9954 1.60133,9.4829 4.1748,13.671 3.8363,6.243 9.0983,11.052 15.2272,14.9586 6.5581,4.1789 13.4287,4.614 20.567,1.6159 C 54.0956,66.7113 59.9372,62.3842 64.1377,56.2206 72.5596,43.8519 72.4789,34.0493 65.567,23.7232 65.2553,23.2578 65.0058,22.7506 64.6934,22.2859 59.9782,15.2821 53.9701,9.91127 45.5231,8.03743 42.4002,7.34433 39.0252,6.846 35.8998,7.26603 19.704,9.44376 9.77752,24.1617 7.60833,35.345 7.41549,36.6747 7.29092,38.0133 7.235,39.3558 Z"
       fill="#000000"
       id="path2"
       style="fill:#959da5;fill-opacity:1" />
  </g>
  <defs
     id="defs9">
    <clipPath
       id="clip0">
      <rect
         width="125.361"
         height="79.416901"
         fill="#ffffff"
         transform="translate(0.356689,0.288086)"
         id="rect6"
         x="0"
         y="0" />
    </clipPath>
  </defs>
</svg>
