<?xml version="1.0" encoding="UTF-8" standalone="no"?>
<svg
   xml:space="preserve"
   viewBox="0 0 9.5913582 15"
   y="0"
   x="0"
   id="圖層_1"
   version="1.1"
   width="19.182716"
   height="30"
   sodipodi:docname="other gender-1.1s-200px.svg"
   inkscape:version="1.1.1 (3bf5ae0d25, 2021-09-20)"
   xmlns:inkscape="http://www.inkscape.org/namespaces/inkscape"
   xmlns:sodipodi="http://sodipodi.sourceforge.net/DTD/sodipodi-0.dtd"
   xmlns="http://www.w3.org/2000/svg"
   xmlns:svg="http://www.w3.org/2000/svg"
   xmlns:d="https://loading.io/stock/"><defs
     id="defs19" /><sodipodi:namedview
     id="namedview17"
     pagecolor="#505050"
     bordercolor="#eeeeee"
     borderopacity="1"
     inkscape:pageshadow="0"
     inkscape:pageopacity="0"
     inkscape:pagecheckerboard="0"
     showgrid="false"
     fit-margin-top="0"
     fit-margin-left="0"
     fit-margin-right="0"
     fit-margin-bottom="0"
     inkscape:zoom="0.72831999"
     inkscape:cx="-495.66126"
     inkscape:cy="58.353472"
     inkscape:window-width="1920"
     inkscape:window-height="1009"
     inkscape:window-x="1272"
     inkscape:window-y="-8"
     inkscape:window-maximized="1"
     inkscape:current-layer="圖層_1" /><g
     class="ldl-scale"
     id="g14"
     transform="matrix(0.16670186,0,0,0.16670186,-3.5394139,-0.8335093)"><g
   id="g4"><path
     fill="#31f294"
     d="M 50,62.537 C 34.137,62.537 21.232,49.632 21.232,33.769 21.232,17.906 34.137,5 50,5 65.863,5 78.768,17.905 78.768,33.768 78.768,49.631 65.863,62.537 50,62.537 Z m 0,-49.091 c -11.206,0 -20.323,9.117 -20.323,20.323 0,11.206 9.117,20.322 20.323,20.322 11.206,0 20.323,-9.117 20.323,-20.323 C 70.323,22.562 61.206,13.446 50,13.446 Z"
     style="fill:#959da5"
     id="path2" /></g>
<g
   id="g8"><path
     fill="#31f294"
     d="M 50,75 A 4.223,4.223 0 0 1 45.777,70.777 V 59.953 a 4.223,4.223 0 0 1 8.446,0 V 70.777 A 4.223,4.223 0 0 1 50,75 Z"
     style="fill:#959da5"
     id="path6" /></g>
<path
   fill="#31f294"
   d="m 50,94.981 c -6.829,0 -12.386,-5.557 -12.386,-12.386 0,-6.829 5.557,-12.385 12.386,-12.385 6.829,0 12.386,5.557 12.386,12.386 0,6.829 -5.557,12.385 -12.386,12.385 z m 0,-18 c -3.096,0 -5.614,2.519 -5.614,5.614 0,3.095 2.518,5.615 5.614,5.615 3.096,0 5.614,-2.519 5.614,-5.614 0,-3.095 -2.518,-5.615 -5.614,-5.615 z"
   style="fill:#959da5"
   id="path10" />
<metadata
   id="metadata12"><d:name
   style="animation-play-state:paused">other gender</d:name>
<d:tags
   style="animation-play-state:paused">lgbt,sex,other gender,people</d:tags>
<d:license
   style="animation-play-state:paused">by</d:license>
<d:slug
   style="animation-play-state:paused">qgsuf8</d:slug></metadata></g><!-- generated by https://loading.io/ --></svg>
