<?xml version="1.0" encoding="UTF-8" standalone="no"?>
<svg
   height="18"
   viewBox="0 0 18 18"
   width="18"
   fill="#000000"
   version="1.1"
   id="svg6"
   xmlns="http://www.w3.org/2000/svg">
  <defs
     id="defs10" />
  <path
     d="M -3,-3 H 21 V 21 H -3 Z"
     fill="none"
     id="path2" />
  <path
     d="m 3.62,7.79 c 1.44,2.83 3.76,5.14 6.59,6.59 l 2.2,-2.2 c 0.27,-0.27 0.67,-0.36 1.02,-0.24 1.12,0.37 2.33,0.57 3.57,0.57 0.55,0 1,0.45 1,1 V 17 c 0,0.55 -0.45,1 -1,1 C 7.61,18 0,10.39 0,1 0,0.45 0.45,0 1,0 h 3.5 c 0.55,0 1,0.45 1,1 0,1.25 0.2,2.45 0.57,3.57 0.11,0.35 0.03,0.74 -0.25,1.02 z"
     id="path4"
     style="fill:#959da5;fill-opacity:1" />
</svg>
