<?xml version="1.0" encoding="UTF-8" standalone="no"?>
<svg
   viewBox="0 0 12.601562 12.601562"
   width="12.601562"
   height="12.601562"
   version="1.1"
   id="svg5"
   xmlns="http://www.w3.org/2000/svg">
  <defs
     id="defs9" />
  <g
     id="surface9199233"
     transform="translate(-5.699219,-5.699219)"
     style="fill:#959da5;fill-opacity:1">
    <path
       style="fill:#959da5;fill-opacity:1;fill-rule:nonzero;stroke:none"
       d="m 9.199219,5.699219 c -1.933594,0 -3.5,1.566406 -3.5,3.5 v 5.601562 c 0,1.933594 1.566406,3.5 3.5,3.5 h 5.601562 c 1.933594,0 3.5,-1.566406 3.5,-3.5 V 9.199219 c 0,-1.933594 -1.566406,-3.5 -3.5,-3.5 z m 7,1.402343 c 0.386719,0 0.699219,0.3125 0.699219,0.699219 C 16.898438,8.1875 16.585938,8.5 16.199219,8.5 15.8125,8.5 15.5,8.1875 15.5,7.800781 15.5,7.414062 15.8125,7.101562 16.199219,7.101562 Z M 12,8.5 c 1.933594,0 3.5,1.566406 3.5,3.5 0,1.933594 -1.566406,3.5 -3.5,3.5 -1.933594,0 -3.5,-1.566406 -3.5,-3.5 0,-1.933594 1.566406,-3.5 3.5,-3.5 z m 0,1.398438 c -1.160156,0 -2.101562,0.941406 -2.101562,2.101562 0,1.160156 0.941406,2.101562 2.101562,2.101562 1.160156,0 2.101562,-0.941406 2.101562,-2.101562 0,-1.160156 -0.941406,-2.101562 -2.101562,-2.101562 z m 0,0"
       id="path2" />
  </g>
</svg>
